<svg xmlns="http://www.w3.org/2000/svg" xmlns:xlink="http://www.w3.org/1999/xlink" viewBox="0 0 680.47 291.99"><defs><style>.cls-1{fill:none;}.cls-2{clip-path:url(#clip-path);}.cls-3{fill:#fff1e9;}.cls-4{fill:#ffd392;}.cls-5{fill:#fff1ea;stroke:#31497c;stroke-miterlimit:10;}.cls-6{fill:#1f295c;}.cls-7{fill:#8157a4;}.cls-8{fill:#32497c;}.cls-9{fill:#8057a4;}</style><clipPath id="clip-path" transform="translate(0 -84.01)"><rect class="cls-1" x="0.47" width="680" height="376"/></clipPath></defs><title>background</title><g id="Layer_2" data-name="Layer 2"><g id="Layer_2-2" data-name="Layer 2"><g class="cls-2"><rect class="cls-3" x="0.47" y="168.72" width="680" height="123.27"/><path class="cls-4" d="M680.47,84s-25.37,80.26-55,76.68-51.12-26-88.78-26c-38,0-63.68,37.89-94,75.6s-129.62,42.28-184,42.28c-27.79,0-96,1.71-140.55-16.57S89.23,143.43.47,143.43v109.3l680-1Z" transform="translate(0 -84.01)"/><path class="cls-4" d="M408.9,376c.77-2.57,4.41-13,13.47-17.61,27.43-13.94,64.6,2.38,81.29-4.86,24-10.42,43.68-46.66,68.75-52.76,22-5.36,107.59-11.47,107.59-11.47l.47,86.71Z" transform="translate(0 -84.01)"/><path class="cls-5" d="M642.48,283.94s-3.87-17.79-14.7-17.79-6,15.53-9.05,15.53-23.44-28.16-34.18-28.16c-13.67,0,1.63,14.32,0,17.58S542.72,257.6,538.82,267c-7,20.51,50,22.62,50,26.2s-9.6,7.81-8.79,12.7,20,2.6,22.46,8.63-10.9,16.93-10.9,17.09,44.92-7.16,44.92-7.16Z" transform="translate(0 -84.01)"/><path class="cls-6" d="M680.47,281.82l-26.7,2.78s-60.64-25.38-60.64-35.82,18.62-7.33,18.62-21.44-27.36-18.62-27.36-27.64,22.85-6.77,22.85-13.54c0-10.44-60.36-41.18-60.36-66.28,0-10.14,3-17.11,16.08-9.59,19.33,11.09,49.92,42.87,53.87,39.21s-.28-29.9,6.49-29.9c25.38,0,32.15,71.92,36.95,71.92,10.65,0,7-15.32,20.21-17.73Z" transform="translate(0 -84.01)"/><path class="cls-7" d="M665.14,276.41a127.29,127.29,0,0,0-3-12.43c-1.17-4.11-2.48-8.18-3.91-12.2a251.51,251.51,0,0,0-9.78-23.7,305.31,305.31,0,0,0-25.82-44.29,343.32,343.32,0,0,0-32.56-39.64,388.19,388.19,0,0,0-37.82-34.71,388.32,388.32,0,0,1,38,34.53,343.69,343.69,0,0,1,32.79,39.53,305.93,305.93,0,0,1,26.08,44.25,252.31,252.31,0,0,1,9.93,23.72c1.46,4,2.8,8.11,4,12.24a128,128,0,0,1,3.06,12.53Z" transform="translate(0 -84.01)"/><path class="cls-8" d="M630.8,315.78a159.77,159.77,0,0,0-39.36-31.61,121.16,121.16,0,0,0-11.34-5.67A106,106,0,0,0,568.22,274a94.8,94.8,0,0,0-25-4.31,94.93,94.93,0,0,1,25,4.07,106.3,106.3,0,0,1,12,4.34,121.58,121.58,0,0,1,11.44,5.58,160.5,160.5,0,0,1,39.88,31.4Z" transform="translate(0 -84.01)"/><path class="cls-9" d="M531.94,376c-2.91-13.16-6.25-33.74,13.08-48.74s49.25,5.53,69.25-3.47c18.42-9.16,13.43-32.45,25.64-43.2,17-15,40.56-12.47,40.56-12.47V376Z" transform="translate(0 -84.01)"/><path class="cls-4" d="M41.92,365.16c-5.6-4.44-7.86-63.58,1.64-63.39S56,317.84,63.66,319.31s26.31-32,37.64-26.86C109,296.1,98.55,303,98,308.71s42.2-9.13,44.76-4.38c11.51,18.63-45.13,22.11-48.6,26.13s12,9.83,6.73,14.32S85.4,345.25,81,350s5.76,13.7,3,17.57S54.34,375,41.92,365.16Z" transform="translate(0 -84.01)"/><path class="cls-7" d="M34.1,362.37c8.05-6.64,16.4-12.86,24.95-18.83S76.38,332,85.44,326.82c4.54-2.56,9.14-5,13.82-7.28s9.47-4.34,14.34-6.2a113.21,113.21,0,0,1,14.95-4.5A63.64,63.64,0,0,1,144,307.18,63.58,63.58,0,0,0,128.57,309a113,113,0,0,0-14.89,4.61c-4.85,1.89-9.59,4-14.26,6.3s-9.23,4.79-13.74,7.38c-9,5.22-17.72,10.89-26.21,16.9s-16.78,12.31-24.73,19Z" transform="translate(0 -84.01)"/><path class="cls-6" d="M.47,376H66c0-26.18-40.52-27-37.5-37.8S72,322.26,71.13,308.7c-.56-7.54-16.66-6.07-15.58-16.78s23.57-16.56,23.3-24.32-18.31-4.16-20-9.91c-2.36-9.25,60.15-34.76,51-64.76-5.17-18.5-51,36.08-58.41,32.71S54.74,201,45.64,201c-21.77-.87-24.68,58.1-30.73,60.8s-10-15-14.44-15Z" transform="translate(0 -84.01)"/><path class="cls-7" d="M0,331.55c2.69-6.72,5.76-13.24,9-19.69s6.69-12.78,10.32-19a362,362,0,0,1,24-36c4.38-5.73,8.89-11.35,13.61-16.8,1.17-1.37,2.39-2.7,3.59-4s2.4-2.69,3.64-4l3.7-3.94,3.8-3.84c1.26-1.29,2.55-2.55,3.86-3.78l3.91-3.73c2.69-2.39,5.31-4.88,8.09-7.17,5.43-4.74,11.18-9.09,17-13.37-5.77,4.31-11.49,8.7-16.89,13.46-2.77,2.31-5.36,4.8-8,7.21l-3.89,3.75c-1.3,1.24-2.59,2.5-3.83,3.8L68,228.28l-3.68,4c-1.24,1.31-2.43,2.66-3.62,4s-2.4,2.68-3.56,4.06c-4.69,5.47-9.16,11.11-13.5,16.85A361.34,361.34,0,0,0,20,293.22q-5.38,9.36-10.19,19c-3.18,6.44-6.22,13-8.85,19.66Z" transform="translate(0 -84.01)"/></g></g></g></svg>