<svg xmlns="http://www.w3.org/2000/svg" xmlns:xlink="http://www.w3.org/1999/xlink" viewBox="0 0 1620.86 775.35"><defs><style>.cls-1,.cls-17,.cls-24,.cls-39,.cls-4,.cls-40,.cls-51,.cls-58{fill:none;}.cls-2{clip-path:url(#clip-path);}.cls-3{fill:#fbfcff;}.cls-4{stroke:#c9c9c9;stroke-width:2px;}.cls-24,.cls-39,.cls-4,.cls-51,.cls-58{stroke-linecap:square;}.cls-17,.cls-4,.cls-40,.cls-42{stroke-miterlimit:10;}.cls-5{fill:#c3eefc;}.cls-6{fill:#f8bba9;}.cls-7{fill:#e18b8a;}.cls-8{fill:#8dbfcf;}.cls-9{fill:#cb3551;}.cls-10{fill:#182746;}.cls-11{fill:#8142ca;}.cls-12,.cls-37{fill:#2e3e5b;}.cls-13{fill:#fedb65;}.cls-14{fill:#fb3;}.cls-15{fill:#ff738e;}.cls-16{opacity:0.61;}.cls-17{stroke:#fbfcff;stroke-width:0.97px;}.cls-18,.cls-34,.cls-37{opacity:0.24;}.cls-19{opacity:0.43;}.cls-20{fill:#ddd;}.cls-21{fill:#c1cad3;}.cls-22{fill:#dde2e8;}.cls-23{fill:#f7ba4d;}.cls-24,.cls-51,.cls-58{stroke:#398aff;}.cls-24,.cls-39,.cls-51,.cls-58{stroke-linejoin:round;}.cls-24{stroke-width:1.08px;}.cls-25{fill:#eaeaea;}.cls-26{fill:#c40;}.cls-27{fill:#dd9773;}.cls-28{fill:#eeb08b;}.cls-29{fill:#162743;}.cls-30{fill:#dd916b;}.cls-31{fill:#ef3063;opacity:0.54;}.cls-32{fill:#64d866;}.cls-33{fill:#44bc5e;}.cls-34{fill:#182742;}.cls-35{fill:#784b34;}.cls-36{fill:#ced5db;}.cls-38{fill:#ff5472;}.cls-39{stroke:#2e3e5b;stroke-width:1.93px;}.cls-40,.cls-42{stroke:#000;}.cls-41{font-size:0.5px;font-family:MyriadPro-Regular, Myriad Pro;}.cls-42{stroke-width:0.5px;}.cls-43{fill:#7de2f9;}.cls-44{fill:#e5897a;}.cls-45{fill:#4d40ff;}.cls-46{fill:#f8bf00;}.cls-47{fill:#020305;}.cls-48{fill:#398aff;}.cls-49{fill:#dacdc8;}.cls-50{fill:#f3c800;}.cls-51{stroke-width:1.03px;}.cls-52{fill:#d84141;}.cls-53{fill:#c9bcb8;}.cls-54{opacity:0.16;}.cls-55{fill:#6b3f2f;}.cls-56{fill:#9a6247;}.cls-57{fill:#87523d;}.cls-58{stroke-width:1.04px;}.cls-59{fill:#008e47;}.cls-60{fill:#a5afb7;}</style><clipPath id="clip-path" transform="translate(-144.65 -205.55)"><rect class="cls-1" width="1920" height="1080"/></clipPath></defs><title>work-background</title><g id="Layer_2" data-name="Layer 2"><g id="floor"><g class="cls-2"><path class="cls-3" d="M565.49,264.18" transform="translate(-144.65 -205.55)"/><path class="cls-4" d="M621.59,363.5" transform="translate(-144.65 -205.55)"/><polygon class="cls-5" points="149.33 523.74 56.74 523.74 56.74 70.83 651.64 70.83 651.64 156.75 649.71 156.75 649.71 72.76 58.67 72.76 58.67 521.81 149.33 521.81 149.33 523.74"/><rect class="cls-5" x="354.07" y="70.83" width="1.93" height="279.54"/><rect class="cls-5" x="158.37" y="287.21" width="197.63" height="1.93"/><polygon class="cls-5" points="1506.73 458.94 1504.8 458.94 1504.8 72.76 905.52 72.76 905.52 297.66 952.3 297.66 952.3 299.59 903.59 299.59 903.59 70.83 1506.73 70.83 1506.73 458.94"/><rect class="cls-5" x="1355.44" y="298.01" width="151.29" height="1.93"/><rect class="cls-5" x="1234.55" y="70.83" width="1.93" height="57.12"/><path class="cls-6" d="M610.27,472.73s-12.55,5.09-17.59,14.52c-1.73,3.25-5,10.87-5,10.87l14.3,6L623,492.71l9.86-20.41" transform="translate(-144.65 -205.55)"/><path class="cls-7" d="M964.46,940c-.36.84,2.9,20.51,2.9,20.51l-26.79,11.58-16.65-18.58,5.67-24.13" transform="translate(-144.65 -205.55)"/><path class="cls-7" d="M880.79,941.67c-.6.36,0,19.06,0,19.06L876.93,968,838.32,966,841,927.67" transform="translate(-144.65 -205.55)"/><path class="cls-8" d="M947.91,542.12c-.32,1.93,23,29,20.55,97.43-1,27-5.31,77-4.5,135.33,1.12,80.45,7.74,169.35,7.74,169.35H921.48S903.1,818.58,900.68,778.46C897.33,723,896.14,644.83,889.75,644c-2.57-.32-11.54,83-14.84,127.34-3.5,47,10.55,172.85,10.55,172.85H835.91s-18.14-96.48-18-174c0-18.73-.2-103.66,5.11-166.45,3.19-37.73,18.7-68.85,18.7-68.85" transform="translate(-144.65 -205.55)"/><path class="cls-6" d="M738.6,488.4S684.25,475,672.55,469c-16.83-8.65-40.15-8.85-41-8.65-8.69,1.79-34.48,14-32.91,17.39s19.19.16,22.93-2.69,41.16,22.54,41.16,22.54,39.93,22.16,62.71,26.35" transform="translate(-144.65 -205.55)"/><path class="cls-9" d="M843.37,269.17a10.43,10.43,0,0,0,2.46-11.55,27.25,27.25,0,0,1,35.85-35.14,12.8,12.8,0,0,0,14.84-4,34.66,34.66,0,0,1,61.47,18,35.3,35.3,0,0,1,.19,4.53,15.42,15.42,0,0,0,7.44,13.43,27.24,27.24,0,0,1-9.41,50.09l-.15,0a5.8,5.8,0,0,0-4.65,6,20.33,20.33,0,0,1-.46,5.52c-1.77,8-10.12,15.37-18.25,16.08a20.57,20.57,0,0,1-20.54-11.89,34.61,34.61,0,0,1-37.2-6.33,12.79,12.79,0,0,1-24.74-1.83,13.14,13.14,0,0,1-.18-1.88,11.71,11.71,0,0,0-4.9-9.21,20.55,20.55,0,0,1-1.78-31.83Z" transform="translate(-144.65 -205.55)"/><ellipse class="cls-6" cx="748.72" cy="126.99" rx="38.85" ry="41.51"/><circle class="cls-10" cx="748.48" cy="124.33" r="1.93"/><circle class="cls-10" cx="727.36" cy="124.33" r="1.93"/><path class="cls-10" d="M883.35,348.89a3.14,3.14,0,0,1-3.13-3.14V334.34a1,1,0,0,1,1.93,0v11.41a1.2,1.2,0,0,0,1.52,1.17l4-1.08a1,1,0,1,1,.5,1.87l-4,1.08A3.19,3.19,0,0,1,883.35,348.89Z" transform="translate(-144.65 -205.55)"/><path class="cls-10" d="M885.33,356.84a11.43,11.43,0,0,1-2.17-.19,1,1,0,0,1,.39-1.89h0s4.73.93,7.69-2a1,1,0,0,1,1.37,1.37A10.15,10.15,0,0,1,885.33,356.84Z" transform="translate(-144.65 -205.55)"/><path class="cls-9" d="M897.77,321.62a1.93,1.93,0,0,1-1.12-.36,9.46,9.46,0,0,0-5.31-1.31,1.93,1.93,0,0,1-.28-3.85c.18,0,4.6-.3,7.84,2a1.93,1.93,0,0,1-1.13,3.5Z" transform="translate(-144.65 -205.55)"/><path class="cls-9" d="M867.59,320.79a1.93,1.93,0,0,1-1-3.55c3.08-2,7.16-1.53,7.61-1.47a1.93,1.93,0,0,1-.49,3.83,8.8,8.8,0,0,0-5,.89A1.92,1.92,0,0,1,867.59,320.79Z" transform="translate(-144.65 -205.55)"/><path class="cls-9" d="M893.37,291c21.46,0,38.85,18.58,38.85,41.51a43.1,43.1,0,0,1-8.72,26.2s-3.75-4-3.67-6.25,7.8-6.68,5.73-14.11c-2.42-8.66-7.17-7.45-9.43-4s-6.35,1.88-6-3.3,5.79-22.72-5-29.55-22.48-2.7-24-2.7c-1.13,0-7.06-1.69-12.54,1.74A37.22,37.22,0,0,1,893.37,291Z" transform="translate(-144.65 -205.55)"/><path class="cls-9" d="M862.83,306.9l.43-.59A2.91,2.91,0,0,1,862.83,306.9Z" transform="translate(-144.65 -205.55)"/><path class="cls-11" d="M910.26,367s5.43,33.66,8.2,34.27,31.77,6.75,44.88,13.27c17.78,8.85,27.87,60.81,30.41,89.53s-.66,68.68-18.1,76.25c-18.5,8-33.14-26.32-33.14-26.32s-72,1.41-95-6.68c-5.55-1.69-9.73-3.38-9.73-3.38s-4.16-25-11.87-37.83a34.73,34.73,0,0,1-4.27-26.46c-13.75,26.61-54.93,53-65.1,54.4-19.06,2.71-36.68-3.06-36.68-3.06l8.69-48.83s15.44,3.47,19.79,0c3.77-3,52.4-64.78,67.08-73.26,12.81-7.57,52.28-6.76,53.33-9.65s9.73-38,9.73-38" transform="translate(-144.65 -205.55)"/><path class="cls-12" d="M956.77,518.19l-.43-.86c-.13-.27-.14-.28-.41-4.42-.55-8.41-1.84-28-4.68-42.89-.16-.21-.14-.48.22-1.16l0,0,0,0c.38-.71,1.11-1.85,2.34-3.78l3.07-4.79,1.62,1-.52.81c-1.7,2.64-4.18,6.53-4.86,7.62,2.86,15,4.15,34.64,4.7,43.07.12,1.8.22,3.37.27,3.8l.37.74Z" transform="translate(-144.65 -205.55)"/><path class="cls-12" d="M989.94,549l-.12-1c-1.32-10.85-12.92-18.84-13-18.92l-.8-.54,1.08-1.6.8.54c.51.35,12.44,8.58,13.87,20.29l.12,1Z" transform="translate(-144.65 -205.55)"/><path class="cls-12" d="M822.31,479.8l-1.83-.61.31-.92c1.28-3.83,4.51-14.49,4.15-17.85l-.1-1,1.92-.21.1,1c.48,4.46-4,18.08-4.24,18.66Z" transform="translate(-144.65 -205.55)"/><path class="cls-6" d="M845.37,402.84c11.94-1.24,22.94-2.15,23.44-3.54,1-2.9,9.73-38,9.73-38L910.32,367s5.43,33.66,8.2,34.27A204.11,204.11,0,0,1,939,406.25c-7.71,4.9-27.22,17.18-46.07,17.18C876.42,423.43,855.66,410.21,845.37,402.84Z" transform="translate(-144.65 -205.55)"/><path class="cls-3" d="M890.23,409.27c-19.08,0-23.17-9.21-23.33-9.6a1,1,0,0,1,1.78-.75c0,.08,3.87,8.42,21.55,8.42,18,0,26.58-6.72,26.66-6.78a1,1,0,0,1,1.22,1.5C917.75,402.35,909,409.27,890.23,409.27Z" transform="translate(-144.65 -205.55)"/><ellipse class="cls-3" cx="745.14" cy="205.85" rx="1.65" ry="3.1"/><path class="cls-13" d="M970.89,954.45s7.27,13.07,6,25.28c.13,1.71-88.24.3-89.16-.5-3.85-3.31,13.37-22.54,36.2-26.59,13.66-2.42,22.41,9.06,32.94,5.64S966.47,950.23,970.89,954.45Z" transform="translate(-144.65 -205.55)"/><path class="cls-14" d="M883.73,954.35s7.68,13.07,6.34,25.28c.14,1.71-93.2.3-94.18-.5-4.06-3.31,14.12-22.54,38.23-26.59,14.43-2.42,23.67,9.06,34.79,5.64S879.07,950.13,883.73,954.35Z" transform="translate(-144.65 -205.55)"/><path class="cls-6" d="M935.06,494s-14.52-4.58-17.68-6.31-11.52-7.85-14.74-3.58,13,15.28,13,15.28" transform="translate(-144.65 -205.55)"/><path class="cls-3" d="M903.2,497.65a8.33,8.33,0,0,1,8.32,8.32v13.55a8.33,8.33,0,0,1-8.32,8.32H885.67a8.33,8.33,0,0,1-8.32-8.32V506a8.33,8.33,0,0,1,8.32-8.32H903.2m0-8.3H885.67A16.66,16.66,0,0,0,869.06,506v13.55a16.66,16.66,0,0,0,16.61,16.61H903.2a16.66,16.66,0,0,0,16.61-16.61V506a16.66,16.66,0,0,0-16.61-16.61Z" transform="translate(-144.65 -205.55)"/><path class="cls-6" d="M948.41,568.42S980.67,565,977,531.86c.48-1.57-10.14-11.38-29.68-23.67-1.81-1.43-8.08-12.77-12.31-14.22s-26.13,3.81-27.14,5.79a7,7,0,0,0,0,6.39,6.59,6.59,0,0,0-1.45,3.74,5.36,5.36,0,0,0,1.45,4.1s-2.24,2.23-2.06,4.71a6.55,6.55,0,0,0,1.33,3.74s-2.65.9-2.05,3.5a14.42,14.42,0,0,0,2.78,5.12s13.81,9.3,20.87,7.55C929.87,538.55,939.26,560,948.41,568.42Z" transform="translate(-144.65 -205.55)"/><path class="cls-15" d="M913.61,508.85l-6-1.77a1,1,0,0,1,.55-1.85l5.65,1.67L935,505.8a1,1,0,0,1,1,.91,1,1,0,0,1-.91,1Z" transform="translate(-144.65 -205.55)"/><path class="cls-15" d="M930.35,517.86h0l-16.8-.55-6-2.42a1,1,0,1,1,.72-1.79l5.65,2.29,16.46.54a1,1,0,0,1,0,1.93Z" transform="translate(-144.65 -205.55)"/><path class="cls-15" d="M927.58,530l-.2,0c-.64-.14-1.67-.3-2.86-.5a81.1,81.1,0,0,1-12.33-2.7,15.43,15.43,0,0,1-5.71-3.73,1,1,0,0,1,1.42-1.31,13.67,13.67,0,0,0,4.91,3.21,79.67,79.67,0,0,0,12,2.62c1.27.21,2.27.37,3,.51a1,1,0,0,1-.2,1.91Z" transform="translate(-144.65 -205.55)"/><path class="cls-15" d="M935.78,537.53a1,1,0,0,1-.21-1.91,3.62,3.62,0,0,0,2.31-2,8,8,0,0,0,0-4.34l-.21-.8.75-.33s2.68-1.22,3.12-3.34-1.23-5.42-1.25-5.45l-.53-1,1-.4s3.58-1.43,4.25-4.72c.64-3.12-1.43-6.63-1.45-6.67a1,1,0,0,1,1.66-1c.1.17,2.48,4.2,1.69,8a8.74,8.74,0,0,1-4.51,5.68,10.61,10.61,0,0,1,1,5.85A7.1,7.1,0,0,1,940,529.6a9.07,9.07,0,0,1-.3,4.85,5.6,5.6,0,0,1-3.66,3.06Z" transform="translate(-144.65 -205.55)"/><rect class="cls-3" x="861.66" y="484.63" width="44.4" height="53.91" rx="2.06" ry="2.06" transform="translate(1623.07 817.63) rotate(-180)"/><path class="cls-12" d="M902.23,555a220,220,0,0,1-45.17-4.59,132.35,132.35,0,0,1-19.63-5.48l-.9-.36.71-1.79.9.36c.26.11,25.5,9.93,64.07,9.93,2.23,0,4.5,0,6.82-.1l1,0,.06,1.93-1,0Q905.59,555,902.23,555Z" transform="translate(-144.65 -205.55)"/><g class="cls-16"><path class="cls-3" d="M877.12,481.87a1,1,0,0,1-.76-1.56,14.9,14.9,0,0,0,2.61-9.94,14.19,14.19,0,0,0-2.23-5.38c-1.72-3-3.66-6.31-2-11.24a1,1,0,1,1,1.83.62c-1.4,4.1.17,6.8,1.82,9.65a15.88,15.88,0,0,1,2.48,6.13,16.6,16.6,0,0,1-3,11.35A1,1,0,0,1,877.12,481.87Z" transform="translate(-144.65 -205.55)"/><path class="cls-3" d="M891,477.78a1,1,0,0,1-.87-1.39,13.72,13.72,0,0,0-1.46-15.29c-1.25-1.92-2.43-3.73-2.59-5.37a14.08,14.08,0,0,1,1.19-6.48,12.85,12.85,0,0,0,1.07-6.87,1,1,0,0,1,1.91-.29,14.81,14.81,0,0,1-1.16,7.83,12.37,12.37,0,0,0-1.08,5.64c.11,1.16,1.22,2.86,2.29,4.5a18.56,18.56,0,0,1,2.94,5.84,19.16,19.16,0,0,1-1.37,11.36A1,1,0,0,1,891,477.78Z" transform="translate(-144.65 -205.55)"/></g><rect class="cls-3" x="651.65" y="768.42" width="182.41" height="1.93"/><path class="cls-17" d="M874.59,974.93" transform="translate(-144.65 -205.55)"/><path class="cls-3" d="M834.9,965.56a1,1,0,0,1-.76-.37,19.74,19.74,0,0,0-14.27-7.4,1,1,0,0,1,0-1.93A21.33,21.33,0,0,1,835.66,964a1,1,0,0,1-.76,1.56Z" transform="translate(-144.65 -205.55)"/><path class="cls-3" d="M845.84,962.44a1,1,0,0,1-.76-.37,19.64,19.64,0,0,0-14.27-7.4,1,1,0,1,1,0-1.93,21.33,21.33,0,0,1,15.79,8.14,1,1,0,0,1-.76,1.56Z" transform="translate(-144.65 -205.55)"/><path class="cls-3" d="M922.46,965.56a1,1,0,0,1-.76-.37,19.74,19.74,0,0,0-14.27-7.4,1,1,0,0,1,0-1.93A21.33,21.33,0,0,1,923.22,964a1,1,0,0,1-.76,1.56Z" transform="translate(-144.65 -205.55)"/><path class="cls-3" d="M933.4,962.44a1,1,0,0,1-.76-.37,19.74,19.74,0,0,0-14.27-7.4,1,1,0,0,1,0-1.93,21.33,21.33,0,0,1,15.79,8.14,1,1,0,0,1-.76,1.56Z" transform="translate(-144.65 -205.55)"/><g class="cls-18"><g class="cls-19"><path d="M957.29,595.29l-.81-.52c-9.2-5.84-19.55-12-21.22-12.28l-.81.22-.51-1.86.93-.25c1.34-.38,9,3.85,22.65,12.54l.81.52Z" transform="translate(-144.65 -205.55)"/><rect x="827.2" y="578.94" width="27.29" height="1.93" transform="translate(-323.28 437.54) rotate(-38.14)"/></g><path d="M875.19,931.52H833.51a1,1,0,1,1,0-1.93h41.68a1,1,0,1,1,0,1.93Z" transform="translate(-144.65 -205.55)"/><path d="M965.2,932.36H919.63a1,1,0,1,1,0-1.93H965.2a1,1,0,1,1,0,1.93Z" transform="translate(-144.65 -205.55)"/></g><g class="cls-18"><rect x="473.33" y="592.08" width="2.9" height="136.7"/><path d="M700.37,956.53h-2.9v-8.86a13.35,13.35,0,0,0-13.34-13.34H555.54a10,10,0,0,0-10,10v11h-2.9v-11a12.92,12.92,0,0,1,12.91-12.91H684.13a16.25,16.25,0,0,1,16.23,16.23Z" transform="translate(-144.65 -205.55)"/><path d="M591.84,950.49h-2.9v-4.94a14.14,14.14,0,0,1,14.13-14.13h6.09v2.9h-6.09a11.24,11.24,0,0,0-11.23,11.23Z" transform="translate(-144.65 -205.55)"/><path d="M651.63,950.54h-2.9v-5.77a10.46,10.46,0,0,0-10.45-10.45H619.94v-2.9h18.35a13.36,13.36,0,0,1,13.34,13.34Z" transform="translate(-144.65 -205.55)"/></g><circle class="cls-20" cx="561.84" cy="758.94" r="15.44"/><path class="cls-3" d="M701.52,980.07a1,1,0,0,1-.8-.43A16.39,16.39,0,0,1,719.64,955a1,1,0,0,1-.62,1.83,14.47,14.47,0,0,0-16.69,21.74,1,1,0,0,1-.8,1.5Z" transform="translate(-144.65 -205.55)"/><circle class="cls-20" cx="390.27" cy="758.94" r="15.44"/><path class="cls-3" d="M543.5,978.29a1,1,0,0,1-.91-1.28,14.47,14.47,0,0,0-21.74-16.69,1,1,0,1,1-1.07-1.6,16.39,16.39,0,0,1,24.64,18.92A1,1,0,0,1,543.5,978.29Z" transform="translate(-144.65 -205.55)"/><circle class="cls-20" cx="447.62" cy="758.94" r="15.44"/><path class="cls-3" d="M600.85,978.29a1,1,0,0,1-.91-1.28,14.47,14.47,0,0,0-21.74-16.69,1,1,0,1,1-1.07-1.6,16.39,16.39,0,0,1,24.64,18.92A1,1,0,0,1,600.85,978.29Z" transform="translate(-144.65 -205.55)"/><circle class="cls-20" cx="505.53" cy="758.94" r="15.44"/><g class="cls-18"><path d="M1496.7,772.15h-9a30.84,30.84,0,0,1-30.81-30.81V714.59c0-5.23,1.31-9.07,4-11.76,5-5,13.66-4.92,23.7-4.87h15.16c10,0,18.71-.09,23.7,4.87,2.7,2.69,4,6.54,4,11.76v26.76A30.84,30.84,0,0,1,1496.7,772.15Zm-15-70.35c-7.92,0-14.61.34-18,3.76-1.94,1.93-2.88,4.88-2.88,9v26.76a27,27,0,0,0,26.94,26.94h9a27,27,0,0,0,26.94-26.94V714.59c0-4.15-.94-7.1-2.88-9-3.85-3.83-11.79-3.79-21-3.75h-18.11Z" transform="translate(-144.65 -205.55)"/><rect x="1273.09" y="592.08" width="2.9" height="136.7"/><path d="M1500.12,956.53h-2.9v-8.86a13.35,13.35,0,0,0-13.34-13.34H1355.3a10,10,0,0,0-10,10v11h-2.9v-11a12.92,12.92,0,0,1,12.91-12.91h128.59a16.25,16.25,0,0,1,16.23,16.23Z" transform="translate(-144.65 -205.55)"/><path d="M1391.6,950.49h-2.9v-4.94a14.14,14.14,0,0,1,14.13-14.13h6.09v2.9h-6.09a11.24,11.24,0,0,0-11.23,11.23Z" transform="translate(-144.65 -205.55)"/><path d="M1451.39,950.54h-2.9v-5.77A10.46,10.46,0,0,0,1438,934.32h-18.35v-2.9H1438a13.36,13.36,0,0,1,13.34,13.34Z" transform="translate(-144.65 -205.55)"/></g><path class="cls-3" d="M645.22,980.07a1,1,0,0,1-.8-.43A16.39,16.39,0,0,1,663.33,955a1,1,0,1,1-.62,1.83A14.47,14.47,0,0,0,646,978.56a1,1,0,0,1-.8,1.5Z" transform="translate(-144.65 -205.55)"/><circle class="cls-21" cx="474.78" cy="593.52" r="17.96"/><rect class="cls-15" x="1280.74" y="382.93" width="134.37" height="142.53" rx="47.8" ry="47.8"/><rect class="cls-22" x="374.83" y="571.12" width="199.91" height="24.45" rx="11.97" ry="11.97"/><rect class="cls-15" x="363.27" y="555.68" width="220.72" height="27.67" rx="13.54" ry="13.54"/><circle class="cls-20" cx="1361.59" cy="758.94" r="15.44"/><circle class="cls-20" cx="1247.37" cy="758.94" r="15.44"/><circle class="cls-20" cx="1305.29" cy="758.94" r="15.44"/><path class="cls-3" d="M1501.28,980.07a1,1,0,0,1-.8-.43A16.39,16.39,0,0,1,1519.39,955a1,1,0,1,1-.62,1.83,14.47,14.47,0,0,0-16.69,21.74,1,1,0,0,1-.8,1.5Z" transform="translate(-144.65 -205.55)"/><path class="cls-3" d="M1400.6,978.29a1,1,0,0,1-.91-1.28,14.47,14.47,0,0,0-21.74-16.69,1,1,0,0,1-1.07-1.6,16.39,16.39,0,0,1,24.64,18.92A1,1,0,0,1,1400.6,978.29Z" transform="translate(-144.65 -205.55)"/><path class="cls-3" d="M1445,980.07a1,1,0,0,1-.8-.43A16.39,16.39,0,0,1,1463.09,955a1,1,0,1,1-.62,1.83,14.47,14.47,0,0,0-16.69,21.74,1,1,0,0,1-.8,1.5Z" transform="translate(-144.65 -205.55)"/><circle class="cls-21" cx="1274.54" cy="593.52" r="17.96"/><rect class="cls-22" x="1174.58" y="571.12" width="199.91" height="24.45" rx="11.97" ry="11.97"/><rect class="cls-15" x="1163.02" y="555.68" width="220.72" height="27.67" rx="13.54" ry="13.54"/><rect class="cls-15" x="338.17" y="358.12" width="195.44" height="135" rx="53.39" ry="53.39"/><rect class="cls-22" x="510.08" y="472.02" width="56.59" height="21.72" rx="10.86" ry="10.86"/><path class="cls-23" d="M590.63,556.2s-1.95,10.92-6.52,15.89-15,28.77-21,43-15.84,58.75-22.29,60.76-32.8-2.51-40.15,23.93S529,750.9,529,750.9s-29.49,10.4-29,18.1,3.58,21.42,15.59,16.85,9.5-8.66,18.82-14.68S567,761.11,567,761.11l12.19-.72,22.3.83s27.25-.53,35.91,1c8.32,1.51,8.6,9.36,15.56,12.79,1.83.91,16.18,9.59,18.73-14.57,1.43-13.62-20.79-21.6-20.79-21.6s21.83-11.65,18.31-26.35-7.74-14.17-14.72-19.36c-17.08-12.69-5.42-34.46-5.42-34.46" transform="translate(-144.65 -205.55)"/><rect class="cls-22" x="338.17" y="472.02" width="50.19" height="21.72" rx="10.86" ry="10.86"/><path class="cls-23" d="M669.7,543.15s12.55,22,16.85,41.54-6.25,58.11-6.26,69,11.1,49,15.22,59.42,15.77,31.55,21.15,34.77,17.39,21.87-1.43,21.15-17.21-6.81-23.66-17.21-42.42-77.18-45.17-88.55-9.75-15.53-15.54-11.16-9.2,3.45-13.5,19.41-7.42,90.68-12.19,94.64-13.37,4.66-22.82,5-10.2-5.2-9.48-12.19,8.07-8.25,9-10c0,0,10.61-14.52,4.33-84.6s2.15-96.79,2.15-96.79,3.76-14.07,2.87-22.41" transform="translate(-144.65 -205.55)"/><path class="cls-24" d="M595.32,541.36" transform="translate(-144.65 -205.55)"/><path class="cls-23" d="M530.61,746.42s-33.16-4.81-57.72,24.75-24.29,52.46-23.48,53.4,2.69-4,3.5-3.14-3.86,12.15,2.84,29.76,19.74,27.29,21.63,28,9.14-13.31,10.22-26.35.69-48.5,7-62.92a96.41,96.41,0,0,1,14-23.12L532,754.12" transform="translate(-144.65 -205.55)"/><path class="cls-9" d="M590.3,555.16s18.48,6.72,39.39,5.65,46.16-5.65,46.16-5.65,5.91,2.47,4.44,10.11c-.46.78-31.85,8.64-53.83,6.56a309.86,309.86,0,0,1-38.63-6.07S586.13,561.66,590.3,555.16Z" transform="translate(-144.65 -205.55)"/><ellipse class="cls-25" cx="512.28" cy="374.03" rx="6.59" ry="7.39"/><path class="cls-23" d="M616.13,473.89s-13.53,9.57-20,15-20.54,17.15-17,38.19,9.59,33.34,10.58,35.18c2.71,5,6.54-.35,7.21-1.36.87-1.3-.5,3,4.34,1.61s14.12-11.15,14.9-19.22c.87-2-.45,8.12,3.83,1.43,11.29-17.64-4.48-44.54,5.38-55.39" transform="translate(-144.65 -205.55)"/><path class="cls-23" d="M612.43,477.92s17.62-22.5,37.24-14.71c15.81,6.27,18.5,13.44,22.45,18.1s33.16,26.53,33.16,26.53,6.81,2.72,5.92,8.26-9,8.05-9,8.05-3.76,18.1-13.09,19.54c-1.17.81-.18-6.09-.18-6.09s-6.81,16.49-17.57,17.57c-2.06-.54-6.25-3.56-5.92-7,.18-2.06-2.33,3.32-6.45,4.66s-16.4-9.32-17-20.43" transform="translate(-144.65 -205.55)"/><path d="M711.2,516.1c-.9,5.54-9,8.05-9,8.05s-.08.4-.26,1.08c-5-4.2-7-9.34-6-13.45.72-3,5.35-4,8.82-4.32l.5.38S712.1,510.56,711.2,516.1Z" transform="translate(-144.65 -205.55)"/><circle cx="512.41" cy="276.66" r="2.51"/><polyline class="cls-23" points="478.18 276.66 458.82 337.6 478.18 349.61 502.06 341.82 514.92 328.64 500.38 299.54"/><path class="cls-26" d="M701.6,767.3a1.07,1.07,0,0,1-.85-.42c-11.71-15.17-51-92.8-52.66-96.1a1.08,1.08,0,0,1,1.92-1c.41.81,40.85,80.74,52.44,95.75a1.07,1.07,0,0,1-.85,1.73Z" transform="translate(-144.65 -205.55)"/><path class="cls-26" d="M637.84,484.62a1.08,1.08,0,0,1-.45-2.05c2.41-1.11,4.26-3.14,6.22-5.3,2.24-2.47,4.55-5,7.84-6.14a3.84,3.84,0,0,1,2.93,0,2.39,2.39,0,0,1,.67.47l.14-.25a5.87,5.87,0,0,1,2.23-2.52c2.62-1.38,5.47,1,6.41,1.78a1.08,1.08,0,0,1-1.38,1.65c-1.81-1.51-3.13-2-4-1.53a4.13,4.13,0,0,0-1.36,1.69,6.47,6.47,0,0,1-2,2.38,1.08,1.08,0,0,1-1.46-1.53.38.38,0,0,0-.16-.2,1.93,1.93,0,0,0-1.33.12c-2.76.94-4.79,3.18-6.94,5.55s-4.1,4.52-6.92,5.81A1.07,1.07,0,0,1,637.84,484.62Z" transform="translate(-144.65 -205.55)"/><path class="cls-26" d="M672.52,555.63a9.34,9.34,0,0,1-4.53-1.09l-.12-.08a12.3,12.3,0,0,1-2.54-2.82,9.28,9.28,0,0,1-1.55,2.16c-1.36,1.34-3.71,2.56-7.21.78a31.31,31.31,0,0,1-16.41-26.67,1.08,1.08,0,1,1,2.15-.08,29.12,29.12,0,0,0,15.23,24.83,4,4,0,0,0,3.81.3c1.78-.93,2.72-3.52,3-4.72q0-.13,0-.27c.08-.43.21-1.14,1-1.25a1.07,1.07,0,0,1,1.11.59,2.28,2.28,0,0,1,0,1.28c-.08,1.55,1.84,3.48,2.63,4.14a8,8,0,0,0,6.27.25c3.3-1.15,8.15-4.91,12.55-16.29a1.08,1.08,0,0,1,2.08.47,38.86,38.86,0,0,0-.1,5.55c1.41-.23,5.8-2.11,8.41-10.11a1.08,1.08,0,1,1,2,.67c-2.93,9-8,11-9.43,11.42a2.9,2.9,0,0,1-2.53-.17c-.21-.18-.54-.46-.67-2-3.35,6.8-7.28,11-11.72,12.52A10.9,10.9,0,0,1,672.52,555.63Z" transform="translate(-144.65 -205.55)"/><path class="cls-26" d="M592.38,565.49h-.16c-1.4-.07-2.58-1-3.5-2.68a93.09,93.09,0,0,1-6.34-16.5,1.08,1.08,0,1,1,2.06-.61,90.82,90.82,0,0,0,6.17,16.09c.54,1,1.12,1.52,1.71,1.55,1.12.1,2.64-1.47,3.66-3a1.31,1.31,0,0,1,1.33-.71,1.35,1.35,0,0,1,1,1.15c.11.39.2.69.46.83s.79.28,2.11-.1c4.19-1.21,13.37-10.44,14.13-18.29l0-.17.07-.16a1.23,1.23,0,0,1,1.35-.89c.93.15,1,1,1.12,2.06a13.3,13.3,0,0,0,.24,1.69,9.39,9.39,0,0,0,1.2-1.58c5.7-8.9,4.2-20.62,2.88-31-1.25-9.79-2.43-19,2.6-24.57a1.08,1.08,0,1,1,1.59,1.45c-4.37,4.8-3.3,13.17-2.06,22.85,1.37,10.7,2.91,22.83-3.21,32.39-1,1.56-2.2,3.1-3.6,2.77a1.7,1.7,0,0,1-1-.7c-2.7,7.44-10.23,14.86-14.73,16.17a4.83,4.83,0,0,1-3.77-.09,2.74,2.74,0,0,1-.87-.76C595.83,564,594.21,565.49,592.38,565.49Z" transform="translate(-144.65 -205.55)"/><path class="cls-26" d="M571,762h-.15a1.08,1.08,0,0,1-.92-1.21,27.63,27.63,0,0,1,1.7-6c.8-2,2.54-3.11,4.56-4.41a29.29,29.29,0,0,0,6.16-4.93c2.64-2.84,2.29-29.35,2-50.65-.2-15.26-.39-29.68.23-38.62,1.59-22.62-2.25-50.37-2.29-50.65a1.08,1.08,0,1,1,2.13-.3c0,.28,3.91,28.25,2.31,51.1-.62,8.84-.43,23.22-.23,38.44.4,30.28.43,48.9-2.58,52.14a31.53,31.53,0,0,1-6.57,5.27c-1.85,1.2-3.19,2.06-3.73,3.41a25.75,25.75,0,0,0-1.56,5.48A1.08,1.08,0,0,1,571,762Z" transform="translate(-144.65 -205.55)"/><path class="cls-26" d="M606.94,753.32h-.12a1.08,1.08,0,0,1-1-1.18c.06-.53,5.71-53.17,8.26-67.65,2.79-15.81,4.89-25.69,10.61-29.55a1.08,1.08,0,1,1,1.2,1.78c-5,3.39-7,12.89-9.69,28.14-2.54,14.41-8.18,67-8.24,67.51A1.08,1.08,0,0,1,606.94,753.32Z" transform="translate(-144.65 -205.55)"/><path class="cls-26" d="M501.46,777.75a1.08,1.08,0,0,1-1-.72c-.08-.22-1.88-5.51-.37-10.38,1.25-4,6.9-8.11,16.8-12.09a132.48,132.48,0,0,1,14.22-4.72,1.08,1.08,0,1,1,.54,2.08c-7.48,1.94-27.37,8.47-29.5,15.36-1.3,4.2.33,9,.35,9a1.07,1.07,0,0,1-.66,1.37A1.06,1.06,0,0,1,501.46,777.75Z" transform="translate(-144.65 -205.55)"/><path class="cls-6" d="M590.42,491.53s-2.55,4.82.06,5.24,8.49-10.4,13-15.08" transform="translate(-144.65 -205.55)"/><path class="cls-15" d="M311.4,849.12c-.35.4-7.46,8.22-7,12s.73,8.82.73,8.82,5.56,11.43,13.21-2.19L326,854.13" transform="translate(-144.65 -205.55)"/><path class="cls-27" d="M585.63,863.78c4,29.27,15.63,34.14,22.49,41.78,4.88,5.43,5.49,9,5,9.25-26.46,12.9-41.71-24-41.71-24s-14.73,6.39-37.27,5.21-40.79-25.41-41.18-26.33l23.46-20.6,45.88,3.1" transform="translate(-144.65 -205.55)"/><path class="cls-27" d="M352.76,890.62S337,922,322.87,934.58s-31.37,19.29-34.23,22.24-1.56,11.56,9.56,9.56,23.37-8.51,46.75-29.89,44.9-48.44,45.18-50,1.56-7,1.56-7l-5.73-6.26-20.68,6.6" transform="translate(-144.65 -205.55)"/><path class="cls-28" d="M262,860.64c0-2,20.33-15.77,22.42-20.59s-3.86-13.36,10.69-26.85c14.34-13.29,46.14-1.3,46.14-1.3s58.91-13.55,69.86-12.69,35.45,10.08,61.17,3.82a267.28,267.28,0,0,1,57.35-7.65c10.43-.17,14.21,4.13,17.68,4.65s7.77.28,9.85,3.58,1,19.1,9,15.41c2.35-1.08,6.08,7.21,3.48,8.47s4.95-1,7.17-.87,2.7,15.14,18.64,15.51c3.27.08,12.38-1.56,16.68.78s29.32,34.41,31.8,35.45,18.12,10.95,14.6,17.46-16.81,9.51-31.28-4.17-13.95-20.59-25.28-20.85-37.27,13.29-59.43,5.73S518,868.2,518,868.2s-18.12,10.3-68,15.64-72.72-1.43-72.2-.52-39.76,28.81-65,40.14c-26.23,11.78-40,20.14-48.12,15.21-6.93-4.2-5.09-9.75-1.3-11.39,6.56-2.83,13.27-2.43,27.17-9.91s48.14-37.36,58-48c1.56-1.22-18.85-5.82-18.85-5.82l-16.25,11.73s-13.12,7.28-15.21,5.13,15.51-15.77,12.51-29.59c-.17-.52-17.29,30-42.88,18.51A10.34,10.34,0,0,1,262,860.64Z" transform="translate(-144.65 -205.55)"/><path class="cls-29" d="M354,829.65,337.82,866.4a9.36,9.36,0,0,0,7.76,1.35c4.76-1.11,22.48-43.6,22.48-43.6" transform="translate(-144.65 -205.55)"/><path class="cls-15" d="M307.57,858c-1.61.44-1-1.6-2.06-.32a32,32,0,0,0-3.33,4.06c-1.33,2.8-3.86,7-2.09,10.47,2.1,4,9.56,5.39,13.65,5.29A17.62,17.62,0,0,0,325,873.4c1-.93,2-2.2,1.82-3.58a4.56,4.56,0,0,0-1-2c-3.38-4.66-7.81-7.51-12.87-9.85-1.62-.75-1.58-2.65-2.31-2.74" transform="translate(-144.65 -205.55)"/><path class="cls-3" d="M273.79,861.6h0l1.66,1.48a1.52,1.52,0,0,0,.89.48,1,1,0,0,0,.75-.36,2.69,2.69,0,0,0-.8-4.38,2.65,2.65,0,0,0-.66-.17,2.19,2.19,0,0,0-1.77.51A2.58,2.58,0,0,0,273.79,861.6Z" transform="translate(-144.65 -205.55)"/><path class="cls-3" d="M330.48,891.32a12.11,12.11,0,0,0,3.95.18,4.1,4.1,0,0,0,3.12-2.19,5.12,5.12,0,0,0-.13-3.59,15.21,15.21,0,0,0-1.89-3.79c-3,2.75-6.36,5.68-9.79,8.64Z" transform="translate(-144.65 -205.55)"/><path class="cls-3" d="M612.12,842.92a7.69,7.69,0,0,0-1.21-.51l.88,1.83a3.15,3.15,0,0,1-.1,2.92c-1.11,2-1.35,4.47-2.38,6.51a5.61,5.61,0,0,0-.61,3.59c.88,4.55,5.34,4.23,8.79,3.55a6.71,6.71,0,0,0,3.49-1.42,5,5,0,0,0,1-4.55,11.1,11.1,0,0,0-.85-2.56C617,847.45,613.49,843.67,612.12,842.92Z" transform="translate(-144.65 -205.55)"/><path class="cls-3" d="M374,852.3c1.75,1.23,3.75,2.48,6,1.47a5.35,5.35,0,0,0,2.69-6.33A8,8,0,0,0,379,842.3a6.84,6.84,0,0,0-4-1.29H373.4c-2.51-.25-4.51,3-4.11,5.51S371.89,850.84,374,852.3Z" transform="translate(-144.65 -205.55)"/><path class="cls-3" d="M277.14,866.43c-1.88-.87-4-1.71-6.1-.49a4.55,4.55,0,0,0-2.26,3.81,26.76,26.76,0,0,0,13.83,2,3.63,3.63,0,0,0-.15-.79C281.76,868.77,279.37,867.46,277.14,866.43Z" transform="translate(-144.65 -205.55)"/><path class="cls-3" d="M396.18,842.62a12.7,12.7,0,0,0,3.34-3.85c3.14-4.55,7.55-8.47,12.91-9.84,5.1-1.31,10.53-.23,15.71-1.16,2.11-.38,4.41-1.33,5.13-3.35.54-1.52,0-3.18-.27-4.77a16.25,16.25,0,0,1,2.54-11.94,42,42,0,0,0,2.48-3.66c-11.53-1.6-21.09-4.39-26.88-4.85-8-.64-41.9,6.49-59.35,10.33l11.08,15.56c5-.53,10.49-.93,14.53,2,3.62,2.64,5.08,7.25,7.54,11S392.39,845,396.18,842.62Z" transform="translate(-144.65 -205.55)"/><path class="cls-3" d="M359.58,912.06a4.62,4.62,0,0,0-.41,1.4c-.63,3.52-1.09,7.06-1.42,10.62,4.86-5,9.45-9.9,13.57-14.5a5.58,5.58,0,0,0-3.74-2.13,6,6,0,0,0-2.79.76,20.72,20.72,0,0,0-4.12,2.64A4.23,4.23,0,0,0,359.58,912.06Z" transform="translate(-144.65 -205.55)"/><path class="cls-3" d="M555.71,824.73a3.79,3.79,0,0,0-4.57-2.64,9.46,9.46,0,0,0-2,.78c-2.3,1.24-4.25,4.06-6.37,7-.87,1.22-1.71,2.72-1.22,4.13.74,2.15,4,2.53,5.57,3a6.43,6.43,0,0,0,4.64-.34c2.76-1.28,4.4-2.86,4.42-5.94C556.17,827.56,556.23,826.49,555.71,824.73Z" transform="translate(-144.65 -205.55)"/><path class="cls-3" d="M453.89,842c1.2-1.26,1.88-2.93,2.93-4.32,3-4,8.28-5.18,12.36-8a14.73,14.73,0,0,0,6.57-10.42c.4-4.22-1.76-8.74-5.6-10.54a12.32,12.32,0,0,0-4.93-1c-9.33-.24-17.33,6.23-24.39,12.33-1.53,1.33-3.42,11.8-2.52,15.14a12.57,12.57,0,0,0,6,8.06C447.39,844.85,451.51,844.53,453.89,842Z" transform="translate(-144.65 -205.55)"/><path class="cls-3" d="M536.14,816.46c1.57,1.84,4.85,1.68,6.79.18a9.58,9.58,0,0,0,3.18-6.23c.39-2.32,2.18-4.83.94-6.3a5.54,5.54,0,0,0-4.19-2.48c-.91,0-1.11,1-1.11,1-.42,2.6-2.7,4.52-4.42,6.59S534.39,814.41,536.14,816.46Z" transform="translate(-144.65 -205.55)"/><path class="cls-3" d="M515.23,814.84c-1.65,1.28-3.67,2.25-5.37,3.49-4.56,3.34-6.36,8.27-8,12.94a3.8,3.8,0,0,0-.19,3,5.64,5.64,0,0,0,2.94,2.08q2.16.91,4.43,1.66a8.52,8.52,0,0,0,3.17.57A8.22,8.22,0,0,0,516,837c4.31-2.71,8.76-5.55,11.1-9.43,2.78-4.61,2.16-10,1.47-15a3.1,3.1,0,0,0-.52-1.58,4.83,4.83,0,0,0-1.83-1.18C524.29,808.94,516.87,813.55,515.23,814.84Z" transform="translate(-144.65 -205.55)"/><path class="cls-3" d="M513,801.31a7.84,7.84,0,0,0,2.39,2.85,2.86,2.86,0,0,0,3.47-.16,4.26,4.26,0,0,0,.75-3.19l-.18-5c-2.6.16-5.45.39-8.53.68A16.72,16.72,0,0,0,513,801.31Z" transform="translate(-144.65 -205.55)"/><path class="cls-3" d="M431,845.6c.24-2.8-1.39-5.39-3-7.73a8.43,8.43,0,0,0-2.36-2.64c-2.33-1.45-6.73,2.31-6.73,2.31a31.38,31.38,0,0,1-4.9,5.58c-1.86,1.67-4.11,3.53-4,6a7.45,7.45,0,0,0,1.75,3.75l2.44,3.39a2.52,2.52,0,0,0,.8.82,2.25,2.25,0,0,0,1.39.12,20,20,0,0,0,7-3C426.85,852.17,430.65,849.56,431,845.6Z" transform="translate(-144.65 -205.55)"/><path class="cls-3" d="M342.48,923.92a4.6,4.6,0,0,0-1.17-3.28c-1.34-1.94-3.15-4.12-5.5-3.89a7,7,0,0,0-1.2.26,78.58,78.58,0,0,1-9.2,11.37,5.65,5.65,0,0,0,4.5,1.8,14.69,14.69,0,0,0,5.26-1.47q2.25-1,4.45-2C340.85,926.08,342.22,925.28,342.48,923.92Z" transform="translate(-144.65 -205.55)"/><circle class="cls-29" cx="150.11" cy="629.68" r="2.22"/><path class="cls-3" d="M309.89,818.43c1.85,1.66,1.34,4.71.14,6.88s-3,4.14-3.34,6.59c-.54,3.66,2.2,6.93,4.87,9.5,2.3,2.21,4.76,4.36,7.74,5.48s6.6,1,9.07-1a1.92,1.92,0,0,0,.55-.63c.34-.72-.15-1.54-.26-2.33a3.79,3.79,0,0,1,2-3.43c1.17-.76,2.53-1.2,3.66-2,2.55-1.86,3.41-5.4,2.85-8.51s-2.29-5.86-4.11-8.43" transform="translate(-144.65 -205.55)"/><path class="cls-30" d="M306.62,811.15c0,3.91.39,21.44,8.91,21s10.6-2.69,14.42-.35,7.47,6.26,15.29,4.34,7.82-3.48,14.25-1.82,23,0,19.12-15.21-10.25-21-19.12-18.94-9.91,5.3-13.38,4.34S342.46,798.62,336,799s-9.12,1.88-13.21.81S306.66,799.18,306.62,811.15Z" transform="translate(-144.65 -205.55)"/><path class="cls-31" d="M318.61,873.28l-.24,0c-5.41-1.26-9-3.34-10.68-6.17a6.16,6.16,0,0,1-.86-4.58,1,1,0,0,1,2,.55,4.21,4.21,0,0,0,.66,3c1,1.59,3.36,3.78,9.35,5.17a1,1,0,0,1-.24,2.06Z" transform="translate(-144.65 -205.55)"/><circle class="cls-32" cx="15.44" cy="731.43" r="15.44"/><path class="cls-33" d="M144.71,935.92a19.22,19.22,0,0,0,4.07,1.64,14,14,0,0,0,10-1.3,15.34,15.34,0,0,0,6.74-7.57,12,12,0,0,0,1-5.75,15.41,15.41,0,0,0-21.78,13Z" transform="translate(-144.65 -205.55)"/><path class="cls-34" d="M204.71,971.74a1,1,0,0,1-.71-.29l-.47-.47,0-.11c-1.66-2.15-10.41-13-20.95-16.62a1,1,0,1,1,.64-1.82c9.58,3.34,18.15,12.55,21.21,16.5,12.4-25.94,37.74-37.83,38-37.95a1,1,0,0,1,.81,1.75c-.26.12-25.77,12.11-37.64,38.26a1,1,0,0,1-.55.67A.94.94,0,0,1,204.71,971.74Z" transform="translate(-144.65 -205.55)"/><circle class="cls-35" cx="142.22" cy="654.25" r="0.88"/><path class="cls-35" d="M286.88,861.17a1.38,1.38,0,1,1,1.38-1.37A1.38,1.38,0,0,1,286.88,861.17Zm0-1.75a.38.38,0,1,0,.38.38A.38.38,0,0,0,286.88,859.42Z" transform="translate(-144.65 -205.55)"/><circle class="cls-35" cx="136.64" cy="654.67" r="0.88"/><path class="cls-35" d="M281.29,861.59a1.38,1.38,0,1,1,1.38-1.37A1.38,1.38,0,0,1,281.29,861.59Zm0-1.75a.38.38,0,1,0,.38.38A.38.38,0,0,0,281.29,859.84Z" transform="translate(-144.65 -205.55)"/><circle class="cls-35" cx="139.38" cy="659.51" r="0.88"/><path class="cls-35" d="M284,866.43a1.38,1.38,0,1,1,1.38-1.37A1.38,1.38,0,0,1,284,866.43Zm0-1.75a.38.38,0,1,0,.38.38A.38.38,0,0,0,284,864.68Z" transform="translate(-144.65 -205.55)"/><path class="cls-15" d="M267.91,869.38a30,30,0,0,0,6.23,2c1.47-5.49.84-12-.89-14.55a6.44,6.44,0,0,0-4.18-2.73c-3.91,3.14-7,5.73-7,6.51A10.34,10.34,0,0,0,267.91,869.38Z" transform="translate(-144.65 -205.55)"/><path class="cls-36" d="M977.69,551.24c-3.89,16.41-22.36,89.14-27.53,109.48a4.26,4.26,0,0,0,4.13,5.3h90.32a4.26,4.26,0,0,0,4.13-3.2l27.75-108.32a4.26,4.26,0,0,0-4.09-5.32L981.87,548A4.25,4.25,0,0,0,977.69,551.24Z" transform="translate(-144.65 -205.55)"/><path class="cls-22" d="M950.26,660.36H878.6a.57.57,0,0,0-.57.57v4.53a.57.57,0,0,0,.57.57h77.62" transform="translate(-144.65 -205.55)"/><path class="cls-22" d="M860.07,666a17.32,17.32,0,0,0-17-14.61H832.55a17.32,17.32,0,0,0-17,14.61Z" transform="translate(-144.65 -205.55)"/><path class="cls-37" d="M843.7,651.34a18.26,18.26,0,0,0-17.32,15.39,1,1,0,0,0,.8,1.1h.15a1,1,0,0,0,1-.82,16.31,16.31,0,0,1,15.39-13.76c.86.34,6.44,2.9,6.44,12.93a1,1,0,0,0,1.93,0c0-6.3-2-10-4-12.15a16.35,16.35,0,0,1,11.09,13,1,1,0,0,0,1.91-.3A18.29,18.29,0,0,0,843.7,651.34Z" transform="translate(-144.65 -205.55)"/><polygon class="cls-38" points="615.49 775.13 612.61 774.87 640 467.6 642.88 467.85 642.76 469.3 615.49 775.13"/><polygon class="cls-38" points="851.18 775.13 848.29 774.87 848.42 773.43 875.68 467.6 878.57 467.85 878.44 469.3 851.18 775.13"/><polygon class="cls-38" points="1191.69 775.13 1191.57 773.68 1164.3 467.85 1167.19 467.6 1167.32 469.04 1194.58 774.87 1191.69 775.13"/><polygon class="cls-38" points="960.79 775.13 960.66 773.68 933.4 467.85 936.28 467.6 936.41 469.04 963.67 774.87 960.79 775.13"/><rect class="cls-20" x="602.79" y="460.48" width="409.02" height="8.69"/><rect class="cls-36" x="919.27" y="460.48" width="302.31" height="8.69"/><line class="cls-20" x1="727.1" y1="457.97" x2="758.93" y2="457.97"/><path class="cls-36" d="M1261.27,663.19H1089.48a2.76,2.76,0,0,1-2.63-1.9l-38.72-117.6a2.76,2.76,0,0,1,2.63-3.63h171.78a2.76,2.76,0,0,1,2.63,1.9l38.72,117.6A2.76,2.76,0,0,1,1261.27,663.19Z" transform="translate(-144.65 -205.55)"/><polygon class="cls-3" points="1107.24 452.64 953.6 452.64 917.88 344.41 1071.52 344.41 1107.24 452.64"/><rect class="cls-36" x="941.18" y="452.64" width="266.43" height="7.84"/><path class="cls-22" d="M941.18,452.64h97.88a1.57,1.57,0,0,1,1.57,1.57v4.69a1.57,1.57,0,0,1-1.57,1.57H942.75a1.57,1.57,0,0,1-1.57-1.57v-6.26A0,0,0,0,1,941.18,452.64Z"/><path class="cls-37" d="M1323.58,667H1087.41a1,1,0,0,1-.92-.67L1052.06,560a1,1,0,0,1,1.84-.6l34.22,105.65h235.47a1,1,0,1,1,0,1.93Z" transform="translate(-144.65 -205.55)"/><path class="cls-39" d="M1079.62,666" transform="translate(-144.65 -205.55)"/><path class="cls-37" d="M957.82,667H893.15a1,1,0,1,1,0-1.93h63.91l23.31-95.47a1,1,0,1,1,1.88.46l-23.49,96.21A1,1,0,0,1,957.82,667Z" transform="translate(-144.65 -205.55)"/><line class="cls-40" x1="1194.33" y1="486.95" x2="1193.35" y2="486.95"/><line class="cls-40" x1="1194.33" y1="486.95" x2="1194.33" y2="486.95"/><line class="cls-40" x1="1193.35" y1="486.95" x2="1193.35" y2="486.95"/><text class="cls-41" transform="translate(1194.31 487.14)">0.0</text><text class="cls-41" transform="translate(1194.31 487.11)">0.2</text><text class="cls-41" transform="translate(1194.31 487.08)">0.4</text><text class="cls-41" transform="translate(1194.31 487.04)">0.6</text><text class="cls-41" transform="translate(1194.31 487.01)">0.8</text><text class="cls-41" transform="translate(1194.31 486.98)">1.0</text><line class="cls-40" x1="1194.33" y1="486.95" x2="1194.33" y2="486.79"/><line class="cls-40" x1="1194.33" y1="486.95" x2="1194.35" y2="486.95"/><line class="cls-40" x1="1194.33" y1="486.92" x2="1194.35" y2="486.92"/><line class="cls-40" x1="1194.33" y1="486.89" x2="1194.35" y2="486.89"/><line class="cls-40" x1="1194.33" y1="486.86" x2="1194.35" y2="486.86"/><line class="cls-40" x1="1194.33" y1="486.82" x2="1194.35" y2="486.82"/><line class="cls-40" x1="1194.33" y1="486.79" x2="1194.35" y2="486.79"/><rect class="cls-42" x="1193.49" y="486.79" width="0.71" height="0.16"/><polygon class="cls-32" points="965.35 378.83 949.76 378.83 945.16 364.67 960.74 364.67 965.35 378.83"/><polygon class="cls-32" points="971.86 398.88 956.27 398.88 951.67 384.72 967.26 384.72 971.86 398.88"/><polygon class="cls-43" points="978.37 418.13 962.79 418.13 958.19 403.97 973.77 403.97 978.37 418.13"/><polygon class="cls-43" points="984.89 438.18 969.3 438.18 964.7 424.02 980.29 424.02 984.89 438.18"/><rect class="cls-36" x="971.66" y="369.96" width="95.77" height="2"/><rect class="cls-36" x="978.17" y="390" width="95.77" height="2"/><rect class="cls-36" x="984.68" y="410.05" width="95.77" height="2"/><rect class="cls-36" x="991.2" y="430.1" width="95.77" height="2"/><polygon class="cls-15" points="1071.52 344.41 917.88 344.41 920.43 352.12 1074.07 352.12 1071.52 344.41"/><polyline class="cls-44" points="1084.19 732.18 1081.46 743.55 1099.32 759.59 1124.41 753.42 1129.88 746.66 1127.79 727.33"/><path class="cls-45" d="M1281.19,979.79H1167.72s1.68-18.84,27.12-29c26.9-10.69,36.29-9.14,39.4-7.31s6.84,11.58,17.7,9.45,17.87-8.84,20.3-7.62S1284.74,957.39,1281.19,979.79Z" transform="translate(-144.65 -205.55)"/><path class="cls-21" d="M1169.44,973.77a23.45,23.45,0,0,0-1.68,6h113.48c.33-2.11.55-4.12.66-6Z" transform="translate(-144.65 -205.55)"/><path class="cls-44" d="M1300.6,935.32c-.24,3.22-10.46,12.23-10.46,12.23l16.2,15.12,35.8-7.59-2.93-25.23-28.15-2.25" transform="translate(-144.65 -205.55)"/><path class="cls-44" d="M1224.11,609.17s-21.21,5.72-23.2,9.25.15,20.91,2.76,22.67,12.41,3.14,14.86,2.3,5.75-4.85,5.59-6.28-4.51-3.68-10.33-.77-4.9-6.69-4.9-6.69,5.51-1.65,11.64-9.23l6.13-7.58" transform="translate(-144.65 -205.55)"/><path class="cls-46" d="M1464.27,508.6s33.78-6.52,51.16,7.72,39.33,56,47.54,92.43,4.58,59-8.45,67.73-55.5,2.59-90.25-4.34-79.87-18.75-79.87-18.75l-38.13-89.28s9.45-36.93,23.41-47.42c14.46-10.86,34.55-7.52,34.55-7.52Z" transform="translate(-144.65 -205.55)"/><path class="cls-29" d="M1374.18,421.87s-4.08-8.11,4.12-22.1,7.88-28.47,13.84-6.76l6,21.72L1378.3,427" transform="translate(-144.65 -205.55)"/><ellipse class="cls-44" cx="1269.68" cy="233.23" rx="42.47" ry="51.88"/><path class="cls-29" d="M1449.74,467.43c-.29.41-5.08-4-2.75-13.13.24-1,6.6-7,5.47-14.32s-8.2-8.61-11.1-5-5.77,11.89-9.27,10c-6.11-3.38,9.43-22.1-4.73-31.35s-36.18-1.51-47.49-10.58c-15.69-12.58-2.46-29.48,6.15-29.48,7.16,0,5.79,7.4,18.5,7.56s34-.48,48.34,17.86S1467.62,442.19,1449.74,467.43Z" transform="translate(-144.65 -205.55)"/><path class="cls-47" d="M1452.86,399c-14.32-18.34-35.63-17.7-48.34-17.86s-11.34-7.56-18.5-7.56c-8.61,0-21.84,16.9-6.15,29.48,11.31,9.07,33.33,1.33,47.49,10.58a14.81,14.81,0,0,1,2.8,2.36c.9-4.83,5.32-16.39,27.26-10.08A51.75,51.75,0,0,0,1452.86,399Z" transform="translate(-144.65 -205.55)"/><circle class="cls-10" cx="1239.01" cy="231.51" r="2.2"/><circle class="cls-10" cx="1260.6" cy="231.51" r="2.2"/><path class="cls-10" d="M1398.09,459.75h-3.41a6.92,6.92,0,0,1-7-6.71,7,7,0,0,1,.29-2.07l3.12-10.46a1,1,0,1,1,1.85.55l-3.12,10.46a5.13,5.13,0,0,0-.21,1.5,5,5,0,0,0,5.12,4.79h3.41a1,1,0,1,1,0,1.93Z" transform="translate(-144.65 -205.55)"/><path class="cls-10" d="M1396.35,469c-.57,0-.9,0-.94,0a1,1,0,0,1-.86-1.06,1,1,0,0,1,1.06-.86h0a20.84,20.84,0,0,0,9.95-2.25,1,1,0,0,1,.82,1.75A24.07,24.07,0,0,1,1396.35,469Z" transform="translate(-144.65 -205.55)"/><path class="cls-10" d="M1411.2,428.89a1.92,1.92,0,0,1-1-.3c-3.63-2.3-8.79-1.21-8.85-1.19a1.93,1.93,0,0,1-.84-3.77c.27-.06,6.75-1.47,11.75,1.7a1.93,1.93,0,0,1-1,3.56Z" transform="translate(-144.65 -205.55)"/><path class="cls-10" d="M1378.67,428.89a1.93,1.93,0,0,1-1.09-3.53c4.74-3.22,10.88-1.79,11.14-1.73a1.93,1.93,0,0,1-.9,3.75c-.05,0-4.76-1.08-8.07,1.17A1.93,1.93,0,0,1,1378.67,428.89Z" transform="translate(-144.65 -205.55)"/><path class="cls-44" d="M1447.39,468l12.07,38.82s-4.22,19.06-33.78,19.06-26.26-18.5-26.26-18.5l3.64-25.18" transform="translate(-144.65 -205.55)"/><path class="cls-48" d="M1381.11,601.06l-.24-.44c-.62-1.15-3.48-20.18-4-24l-.08-.51,1-.15.08.51c1.34,9,3.49,22.71,3.93,23.65l.21.45Z" transform="translate(-144.65 -205.55)"/><path class="cls-49" d="M1519.55,670.37s8.2,75.41-17.86,90.86-139,6.27-139,6.27l10.47-69.31s5.56-36.44,5.51-63.22S1519.55,670.37,1519.55,670.37Z" transform="translate(-144.65 -205.55)"/><path class="cls-50" d="M1520.77,674.71l-.35,9.95s-86.06,5.15-124.91-2.4-9.89-63.22-9.89-63.22l135.15,36.2" transform="translate(-144.65 -205.55)"/><path class="cls-44" d="M1225.88,608.28c-8.86,3.36-18,14.91-20.45,19.1s-6.6,24.64-.8,28.49c3.91,2.3,4.91-7.85,6.06-12.73s7.49-15.41,16-17.71S1258.44,641.79,1274,636s9.21-25.16,9.21-25.16S1246.7,600.38,1225.88,608.28Z" transform="translate(-144.65 -205.55)"/><path class="cls-46" d="M1384.64,617.48s-5.67,45.87-22.37,49.32-92-22.78-92-22.78l2-39.09,78.27,13.86Z" transform="translate(-144.65 -205.55)"/><path class="cls-51" d="M1236.73,618.23" transform="translate(-144.65 -205.55)"/><path class="cls-44" d="M1267.69,636.34c-.6,0-10.32,2.31-16.21,2.45-4.11.1-14.75-3-25.67-4.31-4.64-.56-16.9-2.78-16.13-6.76.81-4.2,9.38-4,17.52-3.8,6.3.14,11.6-.45,18.07-3.51" transform="translate(-144.65 -205.55)"/><path class="cls-52" d="M1215.72,633.35a1,1,0,0,1-.29,0c-5-1.56-7.14-3.45-6.7-5.76,1-5,9.79-4.77,18.34-4.59h.15c6.14.14,11.24-.39,17.63-3.42a1,1,0,1,1,.83,1.74c-6.71,3.18-12.24,3.75-18.5,3.6H1227c-7-.16-15.75-.35-16.4,3-.21,1.1,1.8,2.43,5.38,3.56a1,1,0,0,1-.29,1.89Z" transform="translate(-144.65 -205.55)"/><path class="cls-53" d="M1375.25,690.47c-1.19,1.37-117.44-2.69-149.14,19.67-29.35,20.71-26.27,54.81-23.29,96.08,2.55,35.31,19.43,133.77,19.43,133.77l57.73,1s-11.13-143,.49-165.9c1-6.72,31.71-6.26,31.71-6.26l56.47,1.4,49.38-9" transform="translate(-144.65 -205.55)"/><path class="cls-49" d="M1383.77,690.47c-3.45,1.93-37-.4-53.14,12.87-28.22,23.18-21.75,35.36-32,142.05-6.26,65.37-5.23,95.57-5.23,95.57l50.76,0s19.37-165,37.13-172.26l42.66,1.45,21.24-14.39-7.4-27.46" transform="translate(-144.65 -205.55)"/><path class="cls-45" d="M1347.27,979.79H1233.79s1.68-18.84,27.12-29c26.9-10.69,36.29-9.14,39.4-7.31s6.84,11.58,17.7,9.45,17.87-8.84,20.3-7.62S1350.81,957.39,1347.27,979.79Z" transform="translate(-144.65 -205.55)"/><g class="cls-54"><path d="M1204.88,963.63a1,1,0,0,1-.19-1.91c12.11-2.41,31.82-6.53,33.61-7.39a1,1,0,0,1,1.38,1.33c-.28.37-.95,1.24-34.6,7.95Z" transform="translate(-144.65 -205.55)"/><path d="M1204.88,957.36a1,1,0,0,1-.84-.49l-4.1-7.3a1,1,0,1,1,1.68-.95l4.1,7.3a1,1,0,0,1-.84,1.44Z" transform="translate(-144.65 -205.55)"/><path d="M1214.45,955a1,1,0,0,1-.83-.48l-4.95-8.48a1,1,0,1,1,1.67-1l4.95,8.48a1,1,0,0,1-.83,1.45Z" transform="translate(-144.65 -205.55)"/><path d="M1222.81,953.22a1,1,0,0,1-.87-.54l-4.34-8.85a1,1,0,0,1,1.73-.85l4.34,8.85a1,1,0,0,1-.87,1.39Z" transform="translate(-144.65 -205.55)"/><path d="M1270.9,963.63a1,1,0,0,1-.19-1.91c12.11-2.41,31.81-6.53,33.6-7.39a1,1,0,0,1,1.38,1.33c-.28.37-.95,1.24-34.6,8Z" transform="translate(-144.65 -205.55)"/><path d="M1270.91,957.36a1,1,0,0,1-.84-.49l-4.1-7.3a1,1,0,0,1,1.68-.95l4.1,7.3a1,1,0,0,1-.84,1.44Z" transform="translate(-144.65 -205.55)"/><path d="M1280.48,955a1,1,0,0,1-.83-.48l-4.95-8.48a1,1,0,0,1,1.67-1l4.95,8.48a1,1,0,0,1-.83,1.45Z" transform="translate(-144.65 -205.55)"/><path d="M1288.84,953.22a1,1,0,0,1-.87-.54l-4.34-8.85a1,1,0,1,1,1.73-.85l4.34,8.85a1,1,0,0,1-.87,1.39Z" transform="translate(-144.65 -205.55)"/></g><path class="cls-52" d="M1202.42,639.22l-.19,0a1,1,0,0,1-.75-1.14,99.74,99.74,0,0,1,3.05-11c2.08-6.1,15.87-16.88,16.46-17.33a1,1,0,0,1,1.19,1.52c-.14.11-13.92,10.88-15.82,16.43a97.46,97.46,0,0,0-3,10.76A1,1,0,0,1,1202.42,639.22Z" transform="translate(-144.65 -205.55)"/><path class="cls-18" d="M1305.29,765.76h0a1,1,0,0,1-.94-1c.63-25.82,8-45.34,21.75-58,17.84-16.38,40.51-15.19,40.74-15.18a1,1,0,0,1,.9,1,1,1,0,0,1-1,.91c-.21,0-22.12-1.13-39.33,14.7-13.39,12.3-20.49,31.35-21.11,56.62A1,1,0,0,1,1305.29,765.76Z" transform="translate(-144.65 -205.55)"/><path class="cls-22" d="M1235.47,973.77a23.45,23.45,0,0,0-1.68,6h113.48c.33-2.11.55-4.12.66-6Z" transform="translate(-144.65 -205.55)"/><path class="cls-15" d="M1257.09,540.31c0-.49,3,5.72,7.2,4.54s4.28-13,4.28-13" transform="translate(-144.65 -205.55)"/><path class="cls-15" d="M1259.33,520.94s-6.2,11.31-2.39,17.6c3.21,5.3,6.23-8.74,6.23-8.74l3.17-13.3-4.58-4.44" transform="translate(-144.65 -205.55)"/><path class="cls-55" d="M1291.67,495.36a3.07,3.07,0,0,0,3.67-3.64,33.74,33.74,0,0,0-16.5-22.66c-8.77-5.16-21.12-6.34-29.81-7.58-8.28-1.18-13.1-2.56-13.86-2.16-1.57.82,5.61,15.16,14,23.14s13,8.82,17.13,9.74,9.13-.62,15.78,1C1285.4,494,1288.95,494.76,1291.67,495.36Z" transform="translate(-144.65 -205.55)"/><path class="cls-56" d="M1335.18,522.77s-10.06-12.89-16.08-18.1-13-11.94-19.91-17.71S1268,477.5,1268,477.5s-13.22.37-19.83,10.09-1.73,13.23-4.29,18.37-12.62,12.91-15,14.32c-2.12,1.24-4.36,3.26-4,5.24.4,2.24,15.37,12.1,25.81,5.8,8-4.82,10.62-11,11.42-13.44,0,0,1.79,5-2.23,12.29a33.51,33.51,0,0,1-6.87,9,.72.72,0,0,0,.32,1.24c2.79.62,9.21,1.3,14.1-3.88a37.39,37.39,0,0,1,12.86-9.14s7.68,8,10.5,13.49,29-1,29-1Z" transform="translate(-144.65 -205.55)"/><path class="cls-57" d="M1293.4,496.19a3.07,3.07,0,0,0,4.24-3,33.74,33.74,0,0,0-12.37-25.15c-7.75-6.58-19.72-9.86-28.07-12.57-8-2.59-12.47-4.77-13.29-4.5-1.68.54,2.94,15.89,9.83,25.2s11.3,10.92,15.21,12.53,9.1,1,15.38,3.65C1287.45,493.74,1290.81,495.14,1293.4,496.19Z" transform="translate(-144.65 -205.55)"/><circle class="cls-10" cx="1252.58" cy="504.48" r="1.89" transform="translate(-189.05 -76.96) rotate(-5.77)"/><circle class="cls-10" cx="1246.33" cy="525.47" r="0.84" transform="translate(134.07 1265.01) rotate(-67.19)"/><path class="cls-10" d="M1246.32,526.81a1.34,1.34,0,1,1,.52-2.58,1.34,1.34,0,0,1-.52,2.58Zm0-1.68-.13,0a.34.34,0,0,0,0,.63.34.34,0,1,0,.26-.63Z" transform="translate(-144.65 -205.55)"/><circle class="cls-10" cx="1241.74" cy="521.8" r="0.84" transform="translate(134.64 1258.54) rotate(-67.19)"/><path class="cls-10" d="M1241.74,523.14a1.34,1.34,0,0,1-1.24-1.86h0a1.34,1.34,0,1,1,1.24,1.86Zm-.31-1.47a.34.34,0,0,0,.18.45.34.34,0,0,0,.45-.18.34.34,0,0,0-.63-.26Z" transform="translate(-144.65 -205.55)"/><circle class="cls-10" cx="1239.87" cy="527.15" r="0.84" transform="translate(128.57 1260.09) rotate(-67.19)"/><path class="cls-10" d="M1239.87,528.49a1.34,1.34,0,0,1-1.24-1.86h0a1.33,1.33,0,0,1,.73-.72,1.34,1.34,0,1,1,.51,2.58Zm0-1.68-.13,0a.34.34,0,0,0-.19.18h0a.34.34,0,1,0,.45-.18Z" transform="translate(-144.65 -205.55)"/><path class="cls-55" d="M1247.78,498.39a1,1,0,0,1-.69-1.72c1.54-1.49,5.46-3.59,9.2-.89a1,1,0,1,1-1.17,1.62c-3.34-2.41-6.51.58-6.64.71A1,1,0,0,1,1247.78,498.39Z" transform="translate(-144.65 -205.55)"/><path class="cls-10" d="M1233.59,523.34c-.15-1.52-1.86-2.93-3.46-3.92-.54.38-1,.67-1.3.86-2.12,1.24-4.36,3.26-4,5.24.13.72,1.86,2.35,4.46,4C1231.07,527.94,1233.78,525.25,1233.59,523.34Z" transform="translate(-144.65 -205.55)"/><path class="cls-56" d="M1337.77,524.63a275.07,275.07,0,0,0,55.74,55c8.41,6.21,17.2,12,25,18.9,5.35,4.75,10.61,11.47,8.71,18.37-1,3.77-4,6.64-6.92,9.29-3.42,3.14-7,6.36-11.54,7.52a28.82,28.82,0,0,1-7.22.61c-20.41,0-36.93,8.23-57.67-11.82-10-9.68-23.31-16.3-31.84-27.31-7.49-9.66-14.8-20-17.24-32s1.25-26,11.7-32.37" transform="translate(-144.65 -205.55)"/><path class="cls-58" d="M1306.43,586" transform="translate(-144.65 -205.55)"/><path class="cls-56" d="M1416.46,642.12A65.58,65.58,0,0,0,1425,635a1.44,1.44,0,0,0-.16-2.17c-2.85-2.15-5.93-4.13-9.45-4.38-3.08-.22-6.08.92-9,2.05-3.09,1.21-6.18,2.42-9.23,3.72-8.06,3.44-16.13,7.77-21.38,14.79-.36.48-.7,1-1,1.46l-20.16-16.89s.67,16.92,2.78,27.58,10.95,24.49,9.37,31.37-11.89,20.33-15,20c-1.29-.13-9.64-2.18-9.65,6.43,0,6.66,9.45,10.76,15.25,8.85s25.78-22.52,27.55-30.08-.84-11.93.58-17.9c1.49-6.24,3.59-8.86,7.61-12.33l.44-.36.31-.24a40.61,40.61,0,0,1,11.06-6,1.45,1.45,0,0,0,.9-1.82,14.12,14.12,0,0,1-.6-2.72,2.64,2.64,0,0,1,.16-1.55,2.9,2.9,0,0,1,1-1l10.29-6.87a1.43,1.43,0,0,0-.1-2.44l-.06,0A1.45,1.45,0,0,1,1416.46,642.12Z" transform="translate(-144.65 -205.55)"/><path class="cls-56" d="M1391.61,658.39c.48.12,5.19,6.15,10.14,9.77s11.34,4.89,13.27,9,2.21,18.7,2.29,21c.12,3.32-8.76,2.29-8.57,7.12.24,6,6.88,5.48,13.82,3.38,6.35-1.93,9.25-18.05,8.75-27s.24-14.06-1.81-17.37S1422,655.79,1422,652c0-2.35,3.07-4.17,4.93-5.61-.73.28-1.47-.61-1.37-1.38a3.45,3.45,0,0,1,1.26-1.91l1.5-1.42a7.38,7.38,0,0,0,1.75-2.14,2.51,2.51,0,0,0-.18-2.62c-.42-.5-1.12-.79-1.34-1.41a1.82,1.82,0,0,1,.06-1.15c.62-2,2.48-3.53,2.44-5.58a5.19,5.19,0,0,0-2.1-3.61,19.31,19.31,0,0,0-4.76-2.85,13.35,13.35,0,0,0-4.75-1.33,15.36,15.36,0,0,0-4.95.84,65.26,65.26,0,0,0-10.93,4,9.57,9.57,0,0,0-4,3.12" transform="translate(-144.65 -205.55)"/><path class="cls-56" d="M1327.46,581.07c-4,2.41-2.2,23.72-3.73,25.9s-15.25,51.82-22.44,58c-.85.73-17.21,1.06-17.64-.29-.61-1.91-1.33-6.38.85-8.59,3.26-3.32,8.79-2.17,9.57-3.38.4-.63,4.92-16.66,6.58-40.26a293.36,293.36,0,0,0,.21-33.51" transform="translate(-144.65 -205.55)"/><path class="cls-56" d="M1338.9,579.23c-4,2.41-1,23.91-2.51,26.09-.86,1.23.18,18-1.22,33.47-1.08,12-5.2,23.88-8.71,26-1.27.78-17.33,1.13-17.64-.29-.43-2-1.33-6.23.85-8.45,3.26-3.32,8.79-2.17,9.57-3.38.4-.63,3.16-12.07-.7-40.26-2.32-16.92-10.25-42.63-10.25-42.63" transform="translate(-144.65 -205.55)"/><path class="cls-15" d="M1290,542.86c-.05-.32,28.09-5.93,44.19-21.81.81-.93,5.95,4.31,6.55,9-.08.43-16.32,10.69-26.95,15.34a175.79,175.79,0,0,1-19.29,7.16A19.19,19.19,0,0,1,1290,542.86Z" transform="translate(-144.65 -205.55)"/><path class="cls-55" d="M1293.55,514.55a1,1,0,0,1-.88-1.47,15.36,15.36,0,0,0,0-15.15,1,1,0,0,1,1.68-1.09,17.36,17.36,0,0,1,0,17.18A1,1,0,0,1,1293.55,514.55Z" transform="translate(-144.65 -205.55)"/><path class="cls-55" d="M1317.95,625.38A1,1,0,0,1,1317,624c8.21-18.23,6.54-23.51,6.52-23.56l-.07-.18V600c0-.58.21-14.24,2.46-18.65a1,1,0,0,1,1.78.91c-1.67,3.27-2.18,13.65-2.24,17.6.36,1.28,1.27,7.37-6.62,24.9A1,1,0,0,1,1317.95,625.38Z" transform="translate(-144.65 -205.55)"/><path class="cls-55" d="M1397.79,665.44l-.31-1-1-.19a1.07,1.07,0,0,1,.76-.79c4-1.08,6.46-2.36,6.77-3,.92-1.85,6.38-10.18,6.61-10.53a1,1,0,1,1,1.67,1.1c-1.94,3-5.8,8.92-6.49,10.32C1404.91,663.26,1400.39,664.73,1397.79,665.44Zm.68-.77h0Z" transform="translate(-144.65 -205.55)"/><path class="cls-56" d="M1283.53,492.07c-4.92-4-11.54-9.27-15.84-12.32-5.79-4.12-17.92-20-24.13-27.82-.1,3.51,4.17,16.18,10.17,24.28,6.89,9.3,11.3,10.92,15.21,12.53C1272.68,490.28,1277.6,489.75,1283.53,492.07Z" transform="translate(-144.65 -205.55)"/><path class="cls-44" d="M1382.48,645.05s-32.41-3.33-46-4.29-26.44-4-26.75-7.72,25.1.12,24.37-2.78-20.26-3.06-27.75-5.31-10.49-7-9.89-9.53,6.91,1.75,14.87,2.47,19.63.18,19.87-.54-16.71-2.65-21.24-4.71-16.25-10.55-14.24-14.72c1.73-3.58,10.18,4.14,17.62,7,4,1.53,16.47,2.9,17,2.53s-13.39-6-16.29-9-7.42-11-7.12-13.63,4.68,0,7.76,4.1c2.19,2.93,9.32,7,14.93,7.73s26.42,3.26,26.42,3.26,37,6.33,40.42,7.48" transform="translate(-144.65 -205.55)"/><path class="cls-44" d="M1390.53,607s-8.12-12.47-17.05-16.41c-5.81-2.57-16.81-14.2-20.35-18.46s-8-2.55-5.67,5.19c1.89,6.17,6.53,10.63,8.49,13.79,4.89,7.92.7,11.17.46,13.42" transform="translate(-144.65 -205.55)"/><path class="cls-46" d="M1526.3,621.41c-55.66-20.43-135-22.84-134.81-20.76-.8,25.74-11.9,47.54-11.9,47.54s102.17,28.63,134.49,28.28" transform="translate(-144.65 -205.55)"/><path class="cls-46" d="M1489.73,610.94c-.87-.19-11-25.9-11-25.9" transform="translate(-144.65 -205.55)"/><rect class="cls-22" x="1330.81" y="469.17" width="84.3" height="18.97" rx="9.49" ry="9.49"/><path class="cls-12" d="M1490.47,612.94l-.94-.21c-.61-.13-1.37-.3-11.74-26.48l-.36-.9,1.79-.71.36.9c3.54,8.94,9.41,23.34,10.67,25.38l.63.14Z" transform="translate(-144.65 -205.55)"/><path class="cls-12" d="M1526.88,623.49l-.91-.33c-12.26-4.5-46.61-15.45-100.65-20l-1-.08.16-1.92,1,.08c22.46,1.88,65.47,7,101.16,20.08l.91.33Z" transform="translate(-144.65 -205.55)"/><path class="cls-12" d="M1430.48,535.32a56.32,56.32,0,0,1-9.88-.91l-1-.17.34-1.9,1,.17c31.39,5.6,41.47-17.21,41.57-17.45l.38-.89,1.78.75-.38.89C1464.19,516,1455.66,535.32,1430.48,535.32Z" transform="translate(-144.65 -205.55)"/><path class="cls-33" d="M1634,870.82s-74-86.53-43.23-199.61C1592.53,673.42,1664.74,774.88,1634,870.82Z" transform="translate(-144.65 -205.55)"/><path class="cls-32" d="M1634.48,881s-32.92-109,40.7-200.14C1675.88,683.57,1701.18,805.5,1634.48,881Z" transform="translate(-144.65 -205.55)"/><path class="cls-32" d="M1654.6,958.82s-92-67-88.34-184.14C1568.45,776.42,1662.22,858.37,1654.6,958.82Z" transform="translate(-144.65 -205.55)"/><path class="cls-32" d="M1625.3,945.63s-1.38-117.21,77.33-194.2C1702.57,754.33,1695,883.09,1625.3,945.63Z" transform="translate(-144.65 -205.55)"/><polygon class="cls-22" points="1505.27 687.5 1466.48 687.5 1439.94 687.5 1452.18 775.23 1466.48 775.23 1505.27 775.23 1519.57 775.23 1531.82 687.5 1505.27 687.5"/><path class="cls-59" d="M1631.58,891.24l-.21,0a1,1,0,0,1-.74-1.15c0-.15,3.28-14.9,9.24-33.7,5.5-17.37,14.51-41.87,26.16-59.92a1,1,0,0,1,1.62,1c-22.1,34.22-35,92.4-35.14,93A1,1,0,0,1,1631.58,891.24Z" transform="translate(-144.65 -205.55)"/><path class="cls-59" d="M1636.57,871.79a1,1,0,0,1-.89-.6c-.12-.29-12.13-29.49-23.94-43.66a1,1,0,1,1,1.48-1.24c12,14.41,24.13,43.87,24.25,44.17a1,1,0,0,1-.89,1.33Z" transform="translate(-144.65 -205.55)"/><path class="cls-59" d="M1627.25,829.81a1,1,0,0,1-1-.92c-1.12-24.49,6.57-64.19,6.64-64.59a1,1,0,1,1,1.89.37c-.08.4-7.72,39.87-6.61,64.13a1,1,0,0,1-.92,1Z" transform="translate(-144.65 -205.55)"/><path class="cls-60" d="M1596.07,980.9a1,1,0,0,1-1-.84l-11.48-86.89a1,1,0,0,1,1-1.09h23.59V894h-22.49L1596.92,979l66.21-.81,10.12-69,1.91.28-10.24,69.83a1,1,0,0,1-.94.83l-67.89.83Z" transform="translate(-144.65 -205.55)"/><rect x="23.48" y="773.42" width="1597.38" height="1.93"/></g></g></g></svg>